<?xml version="1.0" encoding="utf-8"?>
<!-- Generator: Adobe Illustrator 23.0.2, SVG Export Plug-In . SVG Version: 6.00 Build 0)  -->
<svg version="1.1" id="Vrstva_1" xmlns="http://www.w3.org/2000/svg" xmlns:xlink="http://www.w3.org/1999/xlink" x="0px" y="0px"
	 viewBox="0 0 512 512" style="enable-background:new 0 0 512 512;" xml:space="preserve">
<style type="text/css">
	.st0{fill:#6699CC;stroke:#6699CC;stroke-width:5;stroke-miterlimit:10;}
</style>
<g id="Calculator">
	<path class="st0" d="M392,496H120c-30.9,0-56-25.1-56-56V72c0-30.9,25.1-56,56-56h272c30.9,0,56,25.1,56,56v368
		C448,470.9,422.9,496,392,496z M120,32c-22.1,0-40,17.9-40,40v368c0,22.1,17.9,40,40,40h272c22.1,0,40-17.9,40-40V72
		c0-22.1-17.9-40-40-40H120z"/>
	<path class="st0" d="M280,464h-48c-13.3,0-24-10.7-24-24l0,0v-32c0-13.3,10.7-24,24-24h48c13.3,0,24,10.7,24,24v32
		C304,453.3,293.3,464,280,464L280,464z M232,400c-4.4,0-8,3.6-8,8v32c0,4.4,3.6,8,8,8h48c4.4,0,8-3.6,8-8v-32c0-4.4-3.6-8-8-8H232z
		"/>
	<path class="st0" d="M168,464h-48c-13.3,0-24-10.7-24-24l0,0v-32c0-13.3,10.7-24,24-24h48c13.3,0,24,10.7,24,24v32
		C192,453.3,181.3,464,168,464L168,464z M120,400c-4.4,0-8,3.6-8,8v32c0,4.4,3.6,8,8,8h48c4.4,0,8-3.6,8-8v-32c0-4.4-3.6-8-8-8H120z
		"/>
	<path class="st0" d="M392,464h-48c-13.3,0-24-10.7-24-24l0,0V312c0-13.3,10.7-24,24-24h48c13.3,0,24,10.7,24,24v128
		C416,453.3,405.3,464,392,464L392,464z M344,304c-4.4,0-8,3.6-8,8v128c0,4.4,3.6,8,8,8h48c4.4,0,8-3.6,8-8V312c0-4.4-3.6-8-8-8H344
		z"/>
	<path class="st0" d="M280,368h-48c-13.3,0-24-10.7-24-24v-32c0-13.3,10.7-24,24-24h48c13.3,0,24,10.7,24,24v32
		C304,357.3,293.3,368,280,368z M232,304c-4.4,0-8,3.6-8,8v32c0,4.4,3.6,8,8,8h48c4.4,0,8-3.6,8-8v-32c0-4.4-3.6-8-8-8H232z"/>
	<path class="st0" d="M168,368h-48c-13.3,0-24-10.7-24-24v-32c0-13.3,10.7-24,24-24h48c13.3,0,24,10.7,24,24v32
		C192,357.3,181.3,368,168,368z M120,304c-4.4,0-8,3.6-8,8v32c0,4.4,3.6,8,8,8h48c4.4,0,8-3.6,8-8v-32c0-4.4-3.6-8-8-8H120z"/>
	<path class="st0" d="M280,272h-48c-13.3,0-24-10.7-24-24v-32c0-13.3,10.7-24,24-24h48c13.3,0,24,10.7,24,24v32
		C304,261.3,293.3,272,280,272z M232,208c-4.4,0-8,3.6-8,8v32c0,4.4,3.6,8,8,8h48c4.4,0,8-3.6,8-8v-32c0-4.4-3.6-8-8-8H232z"/>
	<path class="st0" d="M168,272h-48c-13.3,0-24-10.7-24-24v-32c0-13.3,10.7-24,24-24h48c13.3,0,24,10.7,24,24v32
		C192,261.3,181.3,272,168,272z M120,208c-4.4,0-8,3.6-8,8v32c0,4.4,3.6,8,8,8h48c4.4,0,8-3.6,8-8v-32c0-4.4-3.6-8-8-8H120z"/>
	<path class="st0" d="M392,272h-48c-13.3,0-24-10.7-24-24v-32c0-13.3,10.7-24,24-24h48c13.3,0,24,10.7,24,24v32
		C416,261.3,405.3,272,392,272z M344,208c-4.4,0-8,3.6-8,8v32c0,4.4,3.6,8,8,8h48c4.4,0,8-3.6,8-8v-32c0-4.4-3.6-8-8-8H344z"/>
	<path class="st0" d="M392,160H120c-13.3,0-24-10.7-24-24V72c0-13.3,10.7-24,24-24h272c13.3,0,24,10.7,24,24v64
		C416,149.3,405.3,160,392,160z M120,64c-4.4,0-8,3.6-8,8v64c0,4.4,3.6,8,8,8h272c4.4,0,8-3.6,8-8V72c0-4.4-3.6-8-8-8H120z"/>
	<path class="st0" d="M368,136c-13.3,0-24-10.7-24-24V96c0-13.3,10.7-24,24-24s24,10.7,24,24v16C392,125.3,381.3,136,368,136z
		 M368,88c-4.4,0-8,3.6-8,8v16c0,4.4,3.6,8,8,8s8-3.6,8-8V96C376,91.6,372.4,88,368,88z"/>
</g>
</svg>
