<?xml version="1.0" encoding="utf-8"?>
<!-- Generator: Adobe Illustrator 23.0.2, SVG Export Plug-In . SVG Version: 6.00 Build 0)  -->
<svg version="1.1" id="Bold" xmlns="http://www.w3.org/2000/svg" xmlns:xlink="http://www.w3.org/1999/xlink" x="0px" y="0px"
	 viewBox="0 0 512 512" style="enable-background:new 0 0 512 512;" xml:space="preserve">
<style type="text/css">
	.st0{fill:none;stroke:#E1E1E1;stroke-width:20;stroke-miterlimit:10;}
</style>
<path class="st0" d="M473.4,473.5L473.4,473.5l0.1,0V313.9c0-78-16.8-138.2-108-138.2c-43.9,0-73.3,24.1-85.3,46.9h-1.3v-39.6h-86.5
	v290.4h90.1V329.7c0-37.9,7.2-74.5,54.1-74.5c46.2,0,46.9,43.2,46.9,76.9v141.4L473.4,473.5z"/>
<path class="st0" d="M45.7,183.1h90.2v290.4H45.7L45.7,183.1z"/>
<path class="st0" d="M90.7,38.5c-28.8,0-52.2,23.4-52.2,52.2s23.4,52.7,52.2,52.7S143,119.6,143,90.7C143,61.9,119.6,38.5,90.7,38.5
	z"/>
</svg>
