<?xml version="1.0" encoding="utf-8"?>
<!-- Generator: Adobe Illustrator 23.0.2, SVG Export Plug-In . SVG Version: 6.00 Build 0)  -->
<svg version="1.1" id="Capa_1" xmlns="http://www.w3.org/2000/svg" xmlns:xlink="http://www.w3.org/1999/xlink" x="0px" y="0px"
	 viewBox="0 0 513.6 513.6" style="enable-background:new 0 0 513.6 513.6;" xml:space="preserve">
<style type="text/css">
	.st0{fill:none;stroke:#E1E1E1;stroke-width:20;stroke-miterlimit:10;}
</style>
<g>
	<g>
		<path class="st0" d="M455.9,355.3l-58.7-58.7c-21-21-56.7-12.6-65,14.7c-6.3,18.9-27.3,29.4-46.2,25.2
			c-42-10.5-98.6-65-109.1-109.1c-6.3-18.9,6.3-39.9,25.2-46.2c27.3-8.4,35.7-44.1,14.7-65l-58.7-58.7c-16.8-14.7-42-14.7-56.7,0
			L61.4,97.2c-39.9,42,4.2,153.2,102.8,251.8S374,493.8,416,451.8l39.9-39.9C470.5,395.2,470.5,370,455.9,355.3z"/>
	</g>
</g>
</svg>
