<?xml version="1.0" encoding="utf-8"?>
<!-- Generator: Adobe Illustrator 23.0.2, SVG Export Plug-In . SVG Version: 6.00 Build 0)  -->
<svg version="1.1" id="Capa_1" xmlns="http://www.w3.org/2000/svg" xmlns:xlink="http://www.w3.org/1999/xlink" x="0px" y="0px"
	 viewBox="0 0 512 512" style="enable-background:new 0 0 512 512;" xml:space="preserve">
<style type="text/css">
	.st0{fill:#E1E1E1;}
</style>
<g>
	<path class="st0" d="M68.6,68.6c8.6,7,17,14.2,25.4,21.5c8.4,7.2,16.7,14.6,24.9,21.9c16.5,14.7,32.8,29.7,48.9,44.8
		c32.3,30.2,64,60.9,95.2,92.2c31.2,31.2,62,62.9,92.2,95.2c15.1,16.2,30,32.4,44.8,48.9c7.4,8.3,14.7,16.5,21.9,24.9
		c7.3,8.4,14.4,16.8,21.5,25.4c-8.6-7-17-14.2-25.4-21.5c-8.4-7.2-16.7-14.6-24.9-21.9c-16.5-14.7-32.8-29.7-48.9-44.8
		c-32.3-30.2-64-60.9-95.2-92.2c-31.2-31.2-62-63-92.2-95.2c-15.1-16.2-30-32.4-44.8-48.9c-7.4-8.3-14.7-16.5-21.9-24.9
		C82.8,85.6,75.6,77.2,68.6,68.6z"/>
</g>
<g>
	<path class="st0" d="M443.4,68.6c-7,8.6-14.2,17-21.5,25.4c-7.2,8.4-14.6,16.7-21.9,24.9c-14.7,16.5-29.7,32.8-44.8,48.9
		c-30.2,32.3-60.9,64-92.2,95.2c-31.2,31.2-62.9,62-95.2,92.2c-16.2,15.1-32.4,30-48.9,44.8c-8.3,7.4-16.5,14.7-24.9,21.9
		c-8.4,7.3-16.8,14.4-25.4,21.5c7-8.6,14.2-17,21.5-25.4c7.2-8.4,14.6-16.7,21.9-24.9c14.7-16.5,29.7-32.8,44.8-48.9
		c30.2-32.3,60.9-64,92.2-95.2c31.2-31.2,63-62,95.2-92.2c16.2-15.1,32.4-30,48.9-44.8c8.3-7.4,16.5-14.7,24.9-21.9
		C426.4,82.8,434.8,75.6,443.4,68.6z"/>
</g>
</svg>
