<?xml version="1.0" encoding="utf-8"?>
<!-- Generator: Adobe Illustrator 23.0.2, SVG Export Plug-In . SVG Version: 6.00 Build 0)  -->
<svg version="1.1" id="Capa_1" xmlns="http://www.w3.org/2000/svg" xmlns:xlink="http://www.w3.org/1999/xlink" x="0px" y="0px"
	 viewBox="0 0 512 512" style="enable-background:new 0 0 512 512;" xml:space="preserve">
<style type="text/css">
	.st0{fill:#E1E1E1;}
</style>
<g id="XMLID_75_">
	<g id="XMLID_724_">
		<path id="XMLID_816_" class="st0" d="M60.6,140.4h304.3l-41.5,71.9H90c-5.5,0-10,4.5-10,10c0,5.5,4.5,10,10,10h221.8l-23.1,40H90
			c-5.5,0-10,4.5-10,10c0,5.5,4.5,10,10,10h194.6l-4.3,40H90c-5.5,0-10,4.5-10,10c0,5.5,4.5,10,10,10h188.2l-0.5,4.9
			c-0.4,3.9,1.5,7.8,4.9,9.7c1.6,0.9,3.3,1.3,5,1.3c2.1,0,4.2-0.6,5.9-1.9l63.9-46.6c1.1-0.8,2.1-1.9,2.8-3.1l77.9-135v193.8
			c0,22.4-18.2,40.6-40.6,40.6H165.6c-3.6,0-6.9,1.9-8.7,5l-35,60.6l-35-60.6c-1.8-3.1-5.1-5-8.7-5H60.6
			c-22.4,0-40.6-18.2-40.6-40.6V181C20,158.6,38.2,140.4,60.6,140.4 M60.6,120.4C27.2,120.4,0,147.6,0,181v194.5
			c0,33.4,27.2,60.6,60.6,60.6h11.9l40.7,70.6c1.8,3.1,5.1,5,8.7,5s6.9-1.9,8.7-5l40.7-70.6h226c33.4,0,60.6-27.2,60.6-60.6V181
			c0-8.6-1.8-17-5.3-24.8l53.7-93c11.6-20,4.7-45.8-15.4-57.3l0,0c-20-11.6-45.8-4.7-57.3,15.4l-57.2,99.1H60.6 M481,23.2
			c10.5,6.1,14.1,19.5,8,30l-5.7,9.9l-38.1-22l5.7-9.9C457.1,20.8,470.5,17.2,481,23.2z M304.3,296l28.8,16.6l-33.2,24.2L304.3,296z
			 M347.8,298l-38.1-22L435.3,58.5l38.1,22L347.8,298z"/>
	</g>
</g>
</svg>
