<?xml version="1.0" encoding="utf-8"?>
<!-- Generator: Adobe Illustrator 23.0.2, SVG Export Plug-In . SVG Version: 6.00 Build 0)  -->
<svg version="1.1" id="Capa_1" xmlns="http://www.w3.org/2000/svg" xmlns:xlink="http://www.w3.org/1999/xlink" x="0px" y="0px"
	 viewBox="0 0 512 512" style="enable-background:new 0 0 512 512;" xml:space="preserve">
<style type="text/css">
	.st0{fill:#E1E1E1;}
</style>
<path class="st0" d="M439.9,102.2l-367.6-1l0,0c-23.5,0-43.4,12.5-43.4,35.9v255.4c0,23.5,19.1,42.6,42.6,42.6h368.9
	c23.5,0,42.6-19.1,42.6-42.6V137.2C483,113.8,463.4,102.2,439.9,102.2z M440.4,123c1.9,0,3.8,0.4,5.4,1.1L256,298L66.1,124.1
	c1.7-0.7,3.5-1.1,5.4-1.1L440.4,123z M439.9,412.6H71.2c-7.8,0-19.3-12-19.3-19.8V140.5l194.9,177.7c2.7,2.3,6,3.5,9.3,3.5
	c3.3,0,6.6-1.1,9.3-3.5l194.8-177.7l-0.7,253C459.5,401.3,447.8,412.6,439.9,412.6z"/>
</svg>
